<svg width="24" height="24" viewBox="0 0 24 24" fill="none" xmlns="http://www.w3.org/2000/svg">
<path fill-rule="evenodd" clip-rule="evenodd" d="M7.0161 3.80512C6.862 3.75796 6.67316 3.75009 5.97608 3.75009C5.49021 3.75009 5.16919 3.75064 4.91888 3.77052C4.68002 3.7895 4.55763 3.82318 4.4679 3.86427C4.18524 3.99372 3.90504 4.30227 3.80333 4.59605C3.72562 4.82055 3.73299 5.05584 3.82099 5.96776C4.24595 10.3718 5.65578 13.6933 7.98121 16.0188C10.3066 18.3442 13.6282 19.754 18.0322 20.179C18.9441 20.267 19.1794 20.2744 19.4039 20.1966C19.6977 20.0949 20.0062 19.8147 20.1357 19.5321C20.1768 19.4423 20.2105 19.3199 20.2294 19.0811C20.2493 18.8308 20.2499 18.5098 20.2499 18.0239C20.2499 17.3268 20.242 17.138 20.1949 16.9839C20.1259 16.7585 19.995 16.5571 19.8171 16.4025C19.6954 16.2969 19.526 16.213 18.889 15.9299L17.983 15.5272C17.2932 15.2206 17.1035 15.1464 16.9284 15.1298C16.733 15.1112 16.536 15.1386 16.3531 15.2098C16.1892 15.2736 16.027 15.3968 15.447 15.8801C15.4207 15.902 15.3947 15.9237 15.369 15.9451C14.9086 16.3294 14.5441 16.6337 14.091 16.7993C13.683 16.9483 13.1725 17.0005 12.7429 16.9372C12.2661 16.867 11.893 16.6672 11.429 16.4188C11.4061 16.4065 11.383 16.3942 11.3597 16.3817C9.58273 15.4321 8.56786 14.4172 7.61827 12.6403C7.6058 12.617 7.59344 12.5939 7.58119 12.571C7.3328 12.107 7.13301 11.7338 7.06276 11.2571C6.99944 10.8274 7.05167 10.317 7.20071 9.90901C7.36626 9.45584 7.67054 9.09132 8.05483 8.63095C8.07627 8.60526 8.09797 8.57927 8.1199 8.55296C8.60321 7.97298 8.72633 7.81073 8.79014 7.64686C8.86136 7.46398 8.88877 7.26696 8.87019 7.07159C8.85354 6.89651 8.77939 6.70682 8.47277 6.01693L8.07011 5.11095C7.78701 4.47395 7.70311 4.30458 7.59744 4.18291C7.4429 4.00498 7.24146 3.87407 7.0161 3.80512ZM6.07415 2.25005C6.62614 2.24964 7.05812 2.24932 7.455 2.37076C7.94923 2.52199 8.391 2.80909 8.72992 3.1993C9.00208 3.51265 9.17724 3.90754 9.40105 4.41212C9.41414 4.44162 9.42739 4.47149 9.44083 4.50174L9.84349 5.40772C9.858 5.44037 9.87235 5.4726 9.88653 5.50442C10.1298 6.05071 10.3206 6.47897 10.3634 6.92955C10.4042 7.35803 10.3441 7.79009 10.1879 8.19116C10.0237 8.61293 9.72324 8.97285 9.34003 9.43195C9.31771 9.4587 9.2951 9.48578 9.27223 9.51323C8.79244 10.089 8.67449 10.2462 8.60963 10.4237C8.54624 10.5973 8.51979 10.8556 8.54673 11.0384C8.57483 11.2291 8.64122 11.372 8.94121 11.9333C9.75094 13.4485 10.5514 14.249 12.0667 15.0588C12.628 15.3587 12.7708 15.4251 12.9615 15.4532C13.1443 15.4802 13.4027 15.4537 13.5762 15.3903C13.7538 15.3255 13.911 15.2075 14.4867 14.7277C14.5142 14.7049 14.5413 14.6823 14.568 14.6599C15.0271 14.2767 15.387 13.9763 15.8088 13.8121C16.2099 13.6559 16.6419 13.5958 17.0704 13.6365C17.521 13.6794 17.9493 13.8701 18.4956 14.1135C18.5274 14.1276 18.5596 14.142 18.5923 14.1565L19.4982 14.5591C19.5285 14.5726 19.5584 14.5858 19.5879 14.5989C20.0924 14.8227 20.4873 14.9979 20.8007 15.2701C21.1909 15.609 21.478 16.0507 21.6292 16.545C21.7506 16.9419 21.7503 17.3738 21.7499 17.9258C21.7499 17.9581 21.7499 17.9908 21.7499 18.0239V18.0521C21.7499 18.5022 21.7499 18.8831 21.7247 19.1999C21.6981 19.5347 21.6407 19.8484 21.4995 20.1567C21.1995 20.8117 20.5755 21.3784 19.8946 21.6141C19.3231 21.8119 18.7408 21.7552 18.01 21.6839C17.9698 21.68 17.9292 21.676 17.8881 21.672C13.2417 21.2237 9.55702 19.7159 6.92055 17.0794C4.28407 14.4429 2.77628 10.7583 2.32792 6.11183C2.32396 6.07076 2.32 6.03015 2.31608 5.99C2.24481 5.25918 2.18803 4.67683 2.38587 4.10534C2.62158 3.42448 3.18824 2.80051 3.84331 2.50049C4.1516 2.3593 4.4653 2.30183 4.8001 2.27524C5.11683 2.25007 5.49773 2.25008 5.94782 2.25009L5.97608 2.25009C6.00919 2.25009 6.04188 2.25007 6.07415 2.25005Z" fill="#141B34"/>
</svg>
