<svg width="24" height="24" viewBox="0 0 24 24" fill="none" xmlns="http://www.w3.org/2000/svg">
<path fill-rule="evenodd" clip-rule="evenodd" d="M12 2.75C9.65279 2.75 7.75 4.65279 7.75 7V11C7.75 13.3472 9.65279 15.25 12 15.25C14.0913 15.25 15.8298 13.7395 16.184 11.75H14C13.5858 11.75 13.25 11.4142 13.25 11C13.25 10.5858 13.5858 10.25 14 10.25H16.25V7.75H14C13.5858 7.75 13.25 7.41421 13.25 7C13.25 6.58579 13.5858 6.25 14 6.25H16.184C15.8298 4.26049 14.0913 2.75 12 2.75ZM12 16.75C15.1756 16.75 17.75 14.1756 17.75 11V7C17.75 3.82436 15.1756 1.25 12 1.25C8.82436 1.25 6.25 3.82436 6.25 7V11C6.25 14.1756 8.82436 16.75 12 16.75ZM4.75 11C4.75 10.5858 4.41421 10.25 4 10.25C3.58579 10.25 3.25 10.5858 3.25 11C3.25 15.5798 6.7686 19.3379 11.25 19.7183V21.25H9C8.58579 21.25 8.25 21.5858 8.25 22C8.25 22.4142 8.58579 22.75 9 22.75H15C15.4142 22.75 15.75 22.4142 15.75 22C15.75 21.5858 15.4142 21.25 15 21.25H12.75V19.7183C17.2314 19.3379 20.75 15.5798 20.75 11C20.75 10.5858 20.4142 10.25 20 10.25C19.5858 10.25 19.25 10.5858 19.25 11C19.25 15.0041 16.0041 18.25 12 18.25C7.99594 18.25 4.75 15.0041 4.75 11Z" fill="#ffffff"/>
</svg>
