<svg width="24" height="24" viewBox="0 0 24 24" fill="none" xmlns="http://www.w3.org/2000/svg">
<path fill-rule="evenodd" clip-rule="evenodd" d="M11.25 3.5C11.25 3.08579 11.5858 2.75 12 2.75C12.4142 2.75 12.75 3.08579 12.75 3.5C12.75 3.91421 12.4142 4.25 12 4.25C11.5858 4.25 11.25 3.91421 11.25 3.5ZM14.25 3.5C14.25 4.47966 13.6239 5.31309 12.75 5.62197V7.25H13.0549C14.4225 7.24998 15.5248 7.24996 16.3918 7.36652C17.2919 7.48754 18.0497 7.74643 18.6517 8.34835C19.2536 8.95027 19.5125 9.70814 19.6335 10.6082C19.6606 10.8101 19.6814 11.0247 19.6974 11.2524C20.0922 11.2571 20.4437 11.271 20.7458 11.3116C21.2375 11.3777 21.7087 11.5268 22.091 11.909C22.4732 12.2913 22.6223 12.7625 22.6884 13.2542C22.7501 13.7129 22.75 14.2857 22.75 14.9506V14.9506L22.75 15L22.75 15.0494V15.0494C22.75 15.7143 22.7501 16.2871 22.6884 16.7458C22.6223 17.2375 22.4732 17.7087 22.091 18.091C21.7087 18.4732 21.2375 18.6223 20.7458 18.6884C20.4437 18.729 20.0922 18.7429 19.6974 18.7476C19.6814 18.9753 19.6606 19.1899 19.6335 19.3918C19.5125 20.2919 19.2536 21.0497 18.6517 21.6517C18.0497 22.2536 17.2919 22.5125 16.3918 22.6335C15.5248 22.75 14.4225 22.75 13.0549 22.75H10.9451C9.57754 22.75 8.47522 22.75 7.60825 22.6335C6.70814 22.5125 5.95027 22.2536 5.34835 21.6517C4.74644 21.0497 4.48754 20.2919 4.36653 19.3918C4.33939 19.1899 4.31857 18.9753 4.3026 18.7476C3.90784 18.7429 3.55626 18.729 3.25416 18.6884C2.76252 18.6223 2.29126 18.4732 1.90902 18.091C1.52677 17.7087 1.37771 17.2375 1.31161 16.7458C1.24994 16.2871 1.24997 15.7143 1.25 15.0494V15.0494L1.25001 15L1.25 14.9506V14.9506C1.24997 14.2857 1.24994 13.7129 1.31161 13.2542C1.37771 12.7625 1.52677 12.2913 1.90901 11.909C2.29126 11.5268 2.76252 11.3777 3.25416 11.3116C3.55626 11.271 3.90784 11.2571 4.3026 11.2524C4.31857 11.0247 4.33939 10.8101 4.36653 10.6082C4.48754 9.70814 4.74644 8.95027 5.34835 8.34835C5.95027 7.74643 6.70814 7.48754 7.60825 7.36652C8.47522 7.24996 9.57754 7.24998 10.9451 7.25H11.25V5.62197C10.3761 5.31309 9.75 4.47966 9.75 3.5C9.75 2.25736 10.7574 1.25 12 1.25C13.2426 1.25 14.25 2.25736 14.25 3.5ZM3.45403 12.7982C3.66477 12.7699 3.92125 12.7582 4.25342 12.7534C4.24999 13.1259 4.25 13.5229 4.25 13.9451V16.0549C4.25 16.4771 4.24999 16.8741 4.25342 17.2466C3.92125 17.2418 3.66477 17.2301 3.45403 17.2018C3.12873 17.158 3.02677 17.0874 2.96968 17.0303C2.91258 16.9732 2.84197 16.8713 2.79823 16.546C2.7516 16.1991 2.75001 15.7283 2.75001 15C2.75001 14.2717 2.7516 13.8009 2.79823 13.454C2.84197 13.1287 2.91258 13.0268 2.96968 12.9697C3.02677 12.9126 3.12873 12.842 3.45403 12.7982ZM19.7466 12.7534C19.75 13.1259 19.75 13.5229 19.75 13.9451V16.0549C19.75 16.4771 19.75 16.8741 19.7466 17.2466C20.0788 17.2418 20.3352 17.2301 20.546 17.2018C20.8713 17.158 20.9732 17.0874 21.0303 17.0303C21.0874 16.9732 21.158 16.8713 21.2018 16.546C21.2484 16.1991 21.25 15.7283 21.25 15C21.25 14.2717 21.2484 13.8009 21.2018 13.454C21.158 13.1287 21.0874 13.0268 21.0303 12.9697C20.9732 12.9126 20.8713 12.842 20.546 12.7982C20.3352 12.7699 20.0788 12.7582 19.7466 12.7534ZM6.40901 9.40901C6.68578 9.13225 7.07435 8.9518 7.80812 8.85315C8.56347 8.75159 9.56459 8.75 11 8.75H13C14.4354 8.75 15.4365 8.75159 16.1919 8.85315C16.9257 8.9518 17.3142 9.13225 17.591 9.40901C17.8678 9.68577 18.0482 10.0743 18.1469 10.8081C18.2484 11.5635 18.25 12.5646 18.25 14V16C18.25 17.4354 18.2484 18.4365 18.1469 19.1919C18.0482 19.9257 17.8678 20.3142 17.591 20.591C17.3142 20.8678 16.9257 21.0482 16.1919 21.1469C15.4365 21.2484 14.4354 21.25 13 21.25H11C9.56459 21.25 8.56347 21.2484 7.80812 21.1469C7.07435 21.0482 6.68578 20.8678 6.40901 20.591C6.13225 20.3142 5.9518 19.9257 5.85315 19.1919C5.7516 18.4365 5.75 17.4354 5.75 16V14C5.75 12.5646 5.7516 11.5635 5.85315 10.8081C5.9518 10.0743 6.13225 9.68577 6.40901 9.40901ZM9.75 13C9.75 12.5858 9.41422 12.25 9 12.25C8.58579 12.25 8.25 12.5858 8.25 13V14C8.25 14.4142 8.58579 14.75 9 14.75C9.41422 14.75 9.75 14.4142 9.75 14V13ZM15 12.25C15.4142 12.25 15.75 12.5858 15.75 13V14C15.75 14.4142 15.4142 14.75 15 14.75C14.5858 14.75 14.25 14.4142 14.25 14V13C14.25 12.5858 14.5858 12.25 15 12.25ZM10.446 16.897L10.4479 16.8984L10.4428 16.8947L10.446 16.897ZM10.4423 16.8943L10.4428 16.8947C10.45 16.8994 10.4666 16.9098 10.4927 16.9245C10.545 16.9539 10.6352 16.9997 10.7634 17.0478C11.0183 17.1434 11.4293 17.25 12 17.25C12.5708 17.25 12.9818 17.1434 13.2367 17.0478C13.3649 16.9997 13.4551 16.9539 13.5073 16.9245C13.5335 16.9098 13.5502 16.8992 13.5573 16.8945L13.56 16.8927C13.8907 16.6529 14.354 16.722 14.6 17.05C14.8486 17.3814 14.7814 17.8515 14.45 18.1L14.4489 18.1009L14.4482 18.1014L14.4477 18.1018L14.445 18.1038L14.4389 18.1082L14.4236 18.1192C14.412 18.1274 14.3976 18.1372 14.3803 18.1486C14.3458 18.1712 14.2999 18.1997 14.2427 18.2319C14.1284 18.2962 13.9686 18.3753 13.7634 18.4523C13.3516 18.6067 12.7626 18.75 12 18.75C11.2375 18.75 10.6485 18.6067 10.2367 18.4523C10.0315 18.3753 9.87172 18.2962 9.75735 18.2319C9.70017 18.1997 9.65433 18.1712 9.6198 18.1486C9.60254 18.1372 9.5881 18.1274 9.57648 18.1192L9.56115 18.1082L9.55507 18.1038L9.55243 18.1018L9.5512 18.1009L9.55005 18.1C9.21868 17.8515 9.15152 17.3814 9.40005 17.05C9.6461 16.722 10.1093 16.6529 10.4401 16.8927L10.4392 16.8921L10.4423 16.8943Z" fill="#1e40af"/>
</svg>
