<svg width="24" height="24" viewBox="0 0 24 24" fill="none" xmlns="http://www.w3.org/2000/svg">
<path fill-rule="evenodd" clip-rule="evenodd" d="M2.75 8C2.75 11.198 5.15183 13.8349 8.25 14.2055V16.75C8.25 19.7876 10.7124 22.25 13.75 22.25C16.7876 22.25 19.25 19.7876 19.25 16.75V16.1465C20.4043 15.82 21.25 14.7588 21.25 13.5C21.25 11.9812 20.0188 10.75 18.5 10.75C16.9812 10.75 15.75 11.9812 15.75 13.5C15.75 14.7588 16.5957 15.82 17.75 16.1465V16.75C17.75 18.9591 15.9591 20.75 13.75 20.75C11.5409 20.75 9.75 18.9591 9.75 16.75V14.2055C12.8482 13.8349 15.25 11.198 15.25 8V4.5C15.25 3.5335 14.4665 2.75 13.5 2.75H12.25V2.5C12.25 2.08579 11.9142 1.75 11.5 1.75C11.0858 1.75 10.75 2.08579 10.75 2.5V3.5V4.5C10.75 4.91421 11.0858 5.25 11.5 5.25C11.9142 5.25 12.25 4.91421 12.25 4.5V4.25H13.5C13.6381 4.25 13.75 4.36193 13.75 4.5V8C13.75 10.6234 11.6234 12.75 9 12.75C6.37665 12.75 4.25 10.6234 4.25 8V4.5C4.25 4.36193 4.36193 4.25 4.5 4.25H5.75V4.5C5.75 4.91421 6.08579 5.25 6.5 5.25C6.91421 5.25 7.25 4.91421 7.25 4.5V3.5V2.5C7.25 2.08579 6.91421 1.75 6.5 1.75C6.08579 1.75 5.75 2.08579 5.75 2.5V2.75H4.5C3.5335 2.75 2.75 3.5335 2.75 4.5V8ZM18.5 14.75C17.8096 14.75 17.25 14.1904 17.25 13.5C17.25 12.8096 17.8096 12.25 18.5 12.25C19.1904 12.25 19.75 12.8096 19.75 13.5C19.75 14.1904 19.1904 14.75 18.5 14.75Z" fill="#047857"/>
</svg>
